<?xml version="1.0" encoding="UTF-8"?>
<!-- Created with Inkscape (http://www.inkscape.org/) -->
<svg width="1300" height="300" version="1.1" viewBox="0 0 1300 300" xml:space="preserve" xmlns="http://www.w3.org/2000/svg" xmlns:xlink="http://www.w3.org/1999/xlink"><defs><style type="text/css">*{stroke-linejoin: round; stroke-linecap: round}</style><clipPath id="pacd0054c57"><rect x="97.2" y="41.472" width="602.64" height="266.11"/></clipPath></defs><path d="m71.787 153.94v88.344c0 3.7305 1.8984 5.5938 5.7031 5.5938h91.25c17.488 0 30.797-4.4727 39.922-13.422 6.8438-6.707 10.266-16.77 10.266-30.188 0-13.414-4.1836-24.227-12.547-32.438-12.168-11.926-30.418-17.891-54.75-17.891zm87.828-117.42c26.613 0 46.766 6.7148 60.453 20.141 9.8828 9.6875 14.828 21.984 14.828 36.891 0 14.168-4.5625 25.727-13.688 34.672-9.8867 9.6992-22.812 15.293-38.781 16.781v1.1094c20.531 3.7305 35.738 10.445 45.625 20.141 9.8828 9.6875 14.828 22.359 14.828 38.016 0 17.148-5.7031 31.312-17.109 42.5-12.93 12.664-33.461 19-61.594 19h-94.672c-13.687 0-20.531-6.7109-20.531-20.125v-188.98c0-13.426 6.8437-20.141 20.531-20.141zm-82.125 17.891c-3.8047 0-5.7031 1.8672-5.7031 5.5938v76.047h91.25c16.727 0 29.656-4.4726 38.781-13.422 6.8438-6.707 10.266-16.023 10.266-27.953 0-11.188-3.4219-20.133-10.266-26.844-9.8867-8.9453-24.336-13.422-43.344-13.422z" fill="#8d1628" stroke="#8d1628" stroke-miterlimit="10" stroke-width="6.4426" aria-label="B"/><path d="m357.36 161.1c6.1133 5.9922 9.1719 14.164 9.1719 24.516v54.734c0 7.625 3.6094 11.438 10.828 11.438 5 0 7.5 1.6367 7.5 4.9062 0 4.3516-2.5 6.5312-7.5 6.5312-9.4375 0-15.273-1.0898-17.5-3.2656-4.4375-3.2734-7.2148-8.7188-8.3281-16.344-11.668 13.07-27.227 19.609-46.672 19.609-16.105 0-27.492-3.2656-34.156-9.7969-6.668-6.5391-10-13.352-10-20.438 0-8.1641 2.7734-14.973 8.3281-20.422 8.8828-8.707 23.883-13.609 45-14.703 5.5508 0 13.328-0.81641 23.328-2.4531 3.332-0.53907 6.6641-2.1758 10-4.9062 2.7812-2.7188 4.1719-6.5312 4.1719-11.438 0-3.2578-1.668-6.5234-5-9.7969-6.1172-5.9883-16.391-8.9844-30.828-8.9844-19.449 0-31.398 6.8086-35.844 20.422-1.668 4.9062-4.7188 6.8125-9.1562 5.7188-3.8984-1.6328-5.2891-4.6289-4.1719-8.9844 1.6641-5.9883 4.4414-10.891 8.3281-14.703 9.4453-9.2578 23.336-13.891 41.672-13.891 18.883 0 32.492 4.0859 40.828 12.25zm-5.8281 40.031c-3.8867 2.7305-14.164 4.9141-30.828 6.5469-29.449 2.7188-44.172 10.617-44.172 23.688 0 13.617 9.4414 20.422 28.328 20.422 20 0 35.555-7.3516 46.672-22.062zm89.996 31.859-41.672-74.344c-1.668-4.3516-0.83594-7.6172 2.5-9.7969 4.4453-2.1758 8.0547-0.81641 10.828 4.0781l36.672 64.547 31.672-64.547c2.7695-4.8945 6.3789-6.2539 10.828-4.0781 3.332 2.1797 4.1641 5.4453 2.5 9.7969l-56.672 110.3c-2.7734 4.9062-6.1055 8.4453-10 10.625-3.8867 2.1758-9.164 3.2656-15.828 3.2656-4.4492 0-8.3398-0.54296-11.672-1.625-3.3359-1.6367-4.7188-4.0898-4.1562-7.3594 1.1016-3.2734 3.3203-4.6367 6.6562-4.0938 3.8945 1.0938 7.2266 1.6406 10 1.6406 5.5625 0 10.285-3.543 14.172-10.625zm165.75-68.625c9.4375 9.2617 14.156 20.156 14.156 32.688 0 7.0859-3.6094 10.625-10.828 10.625h-86.672c0 13.062 3.8906 23.414 11.672 31.047 8.8828 8.7109 19.16 13.062 30.828 13.062 13.332 0 23.613-4.082 30.844-12.25 3.8828-4.3633 6.6602-9.2656 8.3281-14.703 2.2188-3.8125 5.2695-4.9062 9.1563-3.2812 3.332 1.6367 4.4453 4.6367 3.3437 9-1.668 5.4492-5.2773 11.438-10.828 17.969-8.3359 9.8008-21.668 14.703-40 14.703-17.781 0-32.23-5.4492-43.344-16.344-11.105-10.883-16.656-25.316-16.656-43.297 0-14.707 5.5508-27.508 16.656-38.406 11.113-10.883 25.281-16.328 42.5-16.328 16.664 0 30.281 5.1719 40.844 15.516zm-83.344 31.859h76.672c2.7813 0 4.1719-1.3594 4.1719-4.0781 0-7.082-3.3359-13.891-10-20.422-7.7812-7.625-17.508-11.438-29.172-11.438-11.117 0-21.117 4.3555-30 13.062-6.1172 6-10.008 13.625-11.672 22.875zm203.3-33.484c3.8945 3.8125 6.1172 7.8984 6.6719 12.25 0.55077 3.8125-0.83986 6.5391-4.1719 8.1719-4.4375 1.0859-7.4922-0.28125-9.1563-4.0938-5.5625-12.52-17.23-18.781-35-18.781-14.449 0-24.449 2.7266-30 8.1719-3.3359 3.2617-5 7.3438-5 12.25 0 6.5312 6.1094 10.891 18.328 13.078 12.781 2.1797 26.945 4.8984 42.5 8.1562 9.4453 2.7305 16.391 6.2734 20.828 10.625 5 4.9062 7.5 11.715 7.5 20.422 0 7.0859-2.7774 12.809-8.3281 17.172-11.117 8.707-25.008 13.062-41.672 13.062-18.887 0-33.605-4.6328-44.156-13.891-4.4492-3.8125-7.5078-8.1641-9.1719-13.062-1.668-4.9062-0.5586-8.4453 3.3281-10.625 4.4453-1.6328 7.7812-0.27344 10 4.0781 1.1133 4.3672 3.6133 8.4531 7.5 12.266 6.6641 6.5312 17.5 9.7969 32.5 9.7969 11.664 0 21.391-2.7227 29.172-8.1719 3.8828-2.7188 5.8281-6.5312 5.8281-11.438 0-9.2578-6.668-15.25-20-17.969l-36.656-6.5312c-21.668-4.3633-32.5-13.352-32.5-26.969 0-7.082 3.0508-13.617 9.1562-19.609 8.332-8.1641 21.664-12.25 40-12.25 19.445 0 33.613 4.6328 42.5 13.891z" fill="#8d1628" stroke="#8d1628" stroke-miterlimit="10" stroke-width="4.8847" aria-label="ayes"/><path transform="matrix(1.0494 0 0 1.0494 594.78 -28.67)" d="m175.25 272.75 48.012-0.1138 14.167-0.24456 9.5971-0.37832 7.312-0.50121 5.941-0.61379 5.484-0.79344 4.57-0.87625 4.113-0.99537 4.113-1.2298 3.656-1.3233 3.656-1.5724 3.199-1.6061 3.199-1.845 3.199-2.1072 3.199-2.3928 3.199-2.7009 3.199-3.0307 3.199-3.3802 3.199-3.747 3.199-4.1279 3.199-4.5189 3.199-4.9153 3.199-5.3116 3.656-6.5472 3.656-7.0359 4.113-8.4579 4.113-8.9668 5.027-11.519 6.855-16.334 10.054-23.955 4.57-10.306 3.656-7.7446 3.199-6.3035 2.742-4.9862 2.742-4.5497 2.285-3.425 2.285-3.0658 2.285-2.6847 1.828-1.8602 1.828-1.595 1.828-1.3222 1.828-1.0432 1.828-0.75922 1.828-0.4716 1.828-0.18171 1.828 0.10905 1.828 0.39929 1.828 0.68761 1.828 0.97263 1.828 1.253 1.828 1.5274 1.828 1.7946 2.285 2.6061 2.285 2.9913 2.285 3.355 2.742 4.4724 2.742 4.9168 3.199 6.2331 3.656 7.6788 4.113 9.1955 5.484 12.873 15.538 36.914 4.57 10.157 4.113 8.6361 3.656 7.2114 3.656 6.7335 3.656 6.2306 3.199 5.0288 3.199 4.6318 3.199 4.2388 3.199 3.8545 3.199 3.4834 3.199 3.1286 3.199 2.793 3.199 2.4785 3.199 2.1865 3.199 1.9176 3.199 1.672 3.656 1.6397 3.656 1.3826 3.656 1.1571 4.113 1.0692 4.57 0.94425 5.027 0.79648 5.484 0.6406 6.398 0.52075 7.769 0.40178 10.054 0.28434 14.624 0.17031 28.791 0.0668 13.737 4e-3v0" clip-path="url(#pacd0054c57)" fill="none" stroke="#daae37" stroke-linecap="round" stroke-width="15"/><path transform="matrix(1.0494 0 0 1.0494 594.78 -28.67)" d="m175.25 272.75 24.705-0.11127 5.484-0.22923 3.656-0.34201 3.199-0.53105 2.285-0.58297 2.285-0.82169 1.828-0.88097 1.828-1.1308 1.828-1.4351 1.828-1.8007 1.371-1.6307 1.371-1.9044 1.371-2.2093 1.371-2.5461 1.371-2.9146 1.828-4.5124 1.828-5.2893 1.828-6.1232 1.828-6.9988 1.828-7.8961 1.828-8.7899 2.285-12.19 2.285-13.393 3.199-20.32 8.683-56.46 2.285-12.721 1.828-8.8268 1.371-5.6711 1.371-4.7563 1.371-3.7642 0.91401-1.927 0.914-1.4439 0.91401-0.94999 0.914-0.449 0.457-0.03544 0.45701 0.09077 0.457 0.21681 0.914 0.80986 0.91401 1.3061 0.914 1.7925 0.91401 2.2656 1.371 4.248 1.371 5.2043 1.371 6.0767 1.828 9.2919 1.828 10.418 2.742 17.143 10.054 64.846 2.285 12.667 2.285 11.305 1.828 7.9732 1.828 6.9798 1.828 5.9716 1.371 3.8177 1.371 3.2562 1.371 2.7016 1.371 2.155 1.371 1.616 0.914 0.78126 0.91401 0.54626 0.914 0.31241 0.91401 0.0792 0.914-0.15379 0.91401-0.38715 0.914-0.62132 0.91401-0.85677 0.914-1.0939 1.371-2.0899 1.371-2.6356 1.371-3.1892 1.371-3.75 1.371-4.3159 1.828-6.6377 1.828-7.6384 1.828-8.6104 2.285-12.045 2.285-13.307 2.742-17.272 9.597-61.937 1.828-9.9884 1.828-8.7556 1.371-5.611 1.371-4.691 1.371-3.6947 0.91401-1.8787 0.914-1.3944 0.91401-0.89974 0.914-0.39828 0.45701-0.01 0.457 0.11619 0.914 0.60986 0.91401 1.109 0.914 1.5998 0.91401 2.0787 0.914 2.5423 1.371 4.641 1.371 5.5659 1.371 6.4018 1.828 9.6622 2.285 13.521 3.199 20.659 6.855 44.987 2.742 16.29 2.285 12.283 2.285 10.948 1.828 7.7521 1.828 6.8567 1.828 5.9865 1.828 5.1608 1.828 4.3941 1.828 3.6959 1.828 3.0715 1.828 2.5225 1.828 2.0476 1.828 1.643 1.828 1.3033 1.828 1.0222 1.828 0.79269 2.285 0.7356 2.742 0.60205 3.199 0.43532 4.113 0.30011 5.941 0.1744 11.882 0.0663 25.135-0.0837 1.371-0.18599 0.91401-0.28179 0.914-0.52739 0.91401-0.94498 0.457-0.7057 0.457-0.91453 0.457-1.1719 0.91401-3.3449 0.914-5.1227 0.91401-7.487 0.914-10.429 0.91401-13.824 0.914-17.395 1.371-32.093 3.199-80.697 0.914-15.768 0.457-5.4341 0.45701-3.5747 0.457-1.6096 0.457 0.4036 0.457 2.4047 0.45701 4.3342 0.457 6.1362 0.91401 16.928 1.371 33.355 2.285 59.278 1.371 28.886 0.91401 14.893 0.914 11.41 0.91401 8.3121 0.914 5.7689 0.91401 3.8196 0.914 2.4153 0.91401 1.4598 0.914 0.84389 0.91401 0.46688 1.371 0.32094 1.828 0.12981 5.484 0.0331 107.42 1.1e-4v0" clip-path="url(#pacd0054c57)" fill="none" stroke="#8e1728" stroke-linecap="round" stroke-width="23.2"/></svg>
