<?xml version="1.0" encoding="UTF-8"?>
<svg width="640" height="640" version="1.1" viewBox="0 0 480 480" xmlns="http://www.w3.org/2000/svg" xmlns:cc="http://creativecommons.org/ns#" xmlns:dc="http://purl.org/dc/elements/1.1/" xmlns:rdf="http://www.w3.org/1999/02/22-rdf-syntax-ns#">
 <metadata>
  <rdf:RDF>
   <cc:Work>
    <dc:type rdf:resource="http://purl.org/dc/dcmitype/StillImage"/>
    <dc:date>2025-06-03T14:13:38.153598</dc:date>
    <dc:format>image/svg+xml</dc:format>
    <dc:creator>
     <cc:Agent>
      <dc:title>Matplotlib v3.8.0, https://matplotlib.org/</dc:title>
     </cc:Agent>
    </dc:creator>
   </cc:Work>
  </rdf:RDF>
 </metadata>
 <defs>
  <style type="text/css">*{stroke-linejoin: round; stroke-linecap: round}</style>
 </defs>
 <g transform="translate(-159.45 62.619)">
  <g transform="translate(.91398 5.4327)">
   <path d="m175.25 272.75 48.012-0.1138 14.167-0.24456 9.5971-0.37832 7.312-0.50121 5.941-0.61379 5.484-0.79344 4.57-0.87625 4.113-0.99537 4.113-1.2298 3.656-1.3233 3.656-1.5724 3.199-1.6061 3.199-1.845 3.199-2.1072 3.199-2.3928 3.199-2.7009 3.199-3.0307 3.199-3.3802 3.199-3.747 3.199-4.1279 3.199-4.5189 3.199-4.9153 3.199-5.3116 3.656-6.5472 3.656-7.0359 4.113-8.4579 4.113-8.9668 5.027-11.519 6.855-16.334 10.054-23.955 4.57-10.306 3.656-7.7446 3.199-6.3035 2.742-4.9862 2.742-4.5497 2.285-3.425 2.285-3.0658 2.285-2.6847 1.828-1.8602 1.828-1.595 1.828-1.3222 1.828-1.0432 1.828-0.75922 1.828-0.4716 1.828-0.18171 1.828 0.10905 1.828 0.39929 1.828 0.68761 1.828 0.97263 1.828 1.253 1.828 1.5274 1.828 1.7946 2.285 2.6061 2.285 2.9913 2.285 3.355 2.742 4.4724 2.742 4.9168 3.199 6.2331 3.656 7.6788 4.113 9.1955 5.484 12.873 15.538 36.914 4.57 10.157 4.113 8.6361 3.656 7.2114 3.656 6.7335 3.656 6.2306 3.199 5.0288 3.199 4.6318 3.199 4.2388 3.199 3.8545 3.199 3.4834 3.199 3.1286 3.199 2.793 3.199 2.4785 3.199 2.1865 3.199 1.9176 3.199 1.672 3.656 1.6397 3.656 1.3826 3.656 1.1571 4.113 1.0692 4.57 0.94425 5.027 0.79648 5.484 0.6406 6.398 0.52075 7.769 0.40178 10.054 0.28434 14.624 0.17031 28.791 0.0668 13.737 4e-3v0" clip-path="url(#pacd0054c57)" fill="none" stroke="#daae37" stroke-linecap="round" stroke-width="15"/>
   <path d="m175.25 272.75 24.705-0.11127 5.484-0.22923 3.656-0.34201 3.199-0.53105 2.285-0.58297 2.285-0.82169 1.828-0.88097 1.828-1.1308 1.828-1.4351 1.828-1.8007 1.371-1.6307 1.371-1.9044 1.371-2.2093 1.371-2.5461 1.371-2.9146 1.828-4.5124 1.828-5.2893 1.828-6.1232 1.828-6.9988 1.828-7.8961 1.828-8.7899 2.285-12.19 2.285-13.393 3.199-20.32 8.683-56.46 2.285-12.721 1.828-8.8268 1.371-5.6711 1.371-4.7563 1.371-3.7642 0.91401-1.927 0.914-1.4439 0.91401-0.94999 0.914-0.449 0.457-0.03544 0.45701 0.09077 0.457 0.21681 0.914 0.80986 0.91401 1.3061 0.914 1.7925 0.91401 2.2656 1.371 4.248 1.371 5.2043 1.371 6.0767 1.828 9.2919 1.828 10.418 2.742 17.143 10.054 64.846 2.285 12.667 2.285 11.305 1.828 7.9732 1.828 6.9798 1.828 5.9716 1.371 3.8177 1.371 3.2562 1.371 2.7016 1.371 2.155 1.371 1.616 0.914 0.78126 0.91401 0.54626 0.914 0.31241 0.91401 0.0792 0.914-0.15379 0.91401-0.38715 0.914-0.62132 0.91401-0.85677 0.914-1.0939 1.371-2.0899 1.371-2.6356 1.371-3.1892 1.371-3.75 1.371-4.3159 1.828-6.6377 1.828-7.6384 1.828-8.6104 2.285-12.045 2.285-13.307 2.742-17.272 9.597-61.937 1.828-9.9884 1.828-8.7556 1.371-5.611 1.371-4.691 1.371-3.6947 0.91401-1.8787 0.914-1.3944 0.91401-0.89974 0.914-0.39828 0.45701-0.01 0.457 0.11619 0.914 0.60986 0.91401 1.109 0.914 1.5998 0.91401 2.0787 0.914 2.5423 1.371 4.641 1.371 5.5659 1.371 6.4018 1.828 9.6622 2.285 13.521 3.199 20.659 6.855 44.987 2.742 16.29 2.285 12.283 2.285 10.948 1.828 7.7521 1.828 6.8567 1.828 5.9865 1.828 5.1608 1.828 4.3941 1.828 3.6959 1.828 3.0715 1.828 2.5225 1.828 2.0476 1.828 1.643 1.828 1.3033 1.828 1.0222 1.828 0.79269 2.285 0.7356 2.742 0.60205 3.199 0.43532 4.113 0.30011 5.941 0.1744 11.882 0.0663 25.135-0.0837 1.371-0.18599 0.91401-0.28179 0.914-0.52739 0.91401-0.94498 0.457-0.7057 0.457-0.91453 0.457-1.1719 0.91401-3.3449 0.914-5.1227 0.91401-7.487 0.914-10.429 0.91401-13.824 0.914-17.395 1.371-32.093 3.199-80.697 0.914-15.768 0.457-5.4341 0.45701-3.5747 0.457-1.6096 0.457 0.4036 0.457 2.4047 0.45701 4.3342 0.457 6.1362 0.91401 16.928 1.371 33.355 2.285 59.278 1.371 28.886 0.91401 14.893 0.914 11.41 0.91401 8.3121 0.914 5.7689 0.91401 3.8196 0.914 2.4153 0.91401 1.4598 0.914 0.84389 0.91401 0.46688 1.371 0.32094 1.828 0.12981 5.484 0.0331 107.42 1.1e-4v0" clip-path="url(#pacd0054c57)" fill="none" stroke="#8e1728" stroke-linecap="round" stroke-width="23.2"/>
  </g>
 </g>
 <defs>
  <clipPath id="pacd0054c57">
   <rect x="97.2" y="41.472" width="602.64" height="266.11"/>
  </clipPath>
 </defs>
</svg>
